<?xml version="1.0" encoding="utf-8"?>
<!DOCTYPE svg PUBLIC "-//W3C//DTD SVG 1.1//EN" "http://www.w3.org/Graphics/SVG/1.1/DTD/svg11.dtd">
<svg version="1.1" xmlns="http://www.w3.org/2000/svg" xmlns:xlink="http://www.w3.org/1999/xlink" x="0px" y="0px"
	 width="200px" height="200px" viewBox="0 0 595.28 841.89" enable-background="new 0 0 595.28 841.89" xml:space="preserve">
	<rect width="595.28" height="841.89"/>
<rect x="-50000" y="-50000" width="100000" height="100000" fill="#000000" /><g id="Layer_1">
	<path fill="#FFFFFF" d="M491.368,445.631h-67.295l-0.151,28.211c0,63.367-64.521,114.737-127.891,114.737
		c-63.367,0-128.737-51.369-128.737-114.736v-28.211H100v-84.737c0-112.492,83.192-203.684,195.684-203.684
		s195.684,91.192,195.684,203.684V445.631z M282.032,380.369c0-31.684-25.685-57.368-57.368-57.368s-57.368,25.685-57.368,57.368
		H282.032z M424.813,380.369c0-31.684-25.684-57.369-57.368-57.369c-31.684,0-57.367,25.685-57.367,57.369H424.813z
		 M295.684,417.944c-15.985,0-28.943,12.958-28.943,28.944c0,0,21.313-5,28.417-5c7.368,0,29.469,5,29.469,5
		C324.627,430.902,311.67,417.944,295.684,417.944z"/>
	
		<rect x="147.58" y="528.683" transform="matrix(0.8528 -0.5223 0.5223 0.8528 -260.9181 166.5546)" fill="#FFFFFF" width="34.736" height="34.736"/>
	
		<rect x="181.475" y="567.514" transform="matrix(0.6289 -0.7775 0.7775 0.6289 -380.9547 371.6699)" fill="#FFFFFF" width="34.735" height="34.734"/>
	
		<rect x="227.773" y="591.734" transform="matrix(0.2559 -0.9667 0.9667 0.2559 -406.4081 690.2293)" fill="#FFFFFF" width="34.733" height="34.733"/>
	
		<rect x="406.234" y="530.513" transform="matrix(-0.8528 -0.5223 0.5223 -0.8528 498.6704 1236.3412)" fill="#FFFFFF" width="34.736" height="34.736"/>
	
		<rect x="372.34" y="569.344" transform="matrix(-0.6289 -0.7775 0.7775 -0.6289 178.6074 1258.6769)" fill="#FFFFFF" width="34.735" height="34.734"/>
	
		<rect x="326.044" y="592.564" transform="matrix(-0.2559 -0.9667 0.9667 -0.2559 -158.3547 1097.9644)" fill="#FFFFFF" width="34.733" height="34.733"/>
	
		<rect x="277.042" y="599.07" transform="matrix(0.0028 -1 1 0.0028 -322.8459 909.1282)" fill="#FFFFFF" width="34.732" height="34.734"/>
</g>
</svg>
